<svg width="69" height="69" viewBox="0 0 69 69" fill="none" xmlns="http://www.w3.org/2000/svg">
<path d="M8.62514 51.7502C8.625 51.5646 8.625 51.3731 8.625 51.1756V17.8256C8.625 14.6053 8.625 12.9939 9.25171 11.7639C9.80298 10.682 10.682 9.80298 11.7639 9.25171C12.9939 8.625 14.6053 8.625 17.8256 8.625H51.1756C54.3959 8.625 56.0052 8.625 57.2352 9.25171C58.3171 9.80298 59.1976 10.682 59.7489 11.7639C60.375 12.9927 60.375 14.6021 60.375 17.8161V51.1839C60.375 52.5783 60.375 53.6702 60.3239 54.56M8.62514 51.7502C8.62736 54.5917 8.66344 56.0792 9.25171 57.2338C9.80298 58.3157 10.682 59.1976 11.7639 59.7489C12.9927 60.375 14.6021 60.375 17.8161 60.375H51.1853C54.3993 60.375 56.0064 60.375 57.2352 59.7489C58.3171 59.1976 59.1976 58.3157 59.7489 57.2338C60.1034 56.5381 60.2572 55.7212 60.3239 54.56M8.62514 51.7502L22.3329 35.7578L22.337 35.7534C23.5528 34.335 24.1617 33.6246 24.8839 33.3685C25.5183 33.1436 26.211 33.1489 26.8422 33.3826C27.5616 33.6489 28.1608 34.3674 29.3593 35.8055L37.0389 45.0211C38.1482 46.3523 38.7062 47.0218 39.3835 47.2905C39.9811 47.5275 40.64 47.5543 41.2565 47.3723C41.9583 47.1652 42.5761 46.5475 43.8115 45.3121L45.2405 43.8831C46.4983 42.6253 47.1272 41.9968 47.8391 41.7914C48.4643 41.611 49.1327 41.6497 49.7341 41.8981C50.4189 42.1809 50.9743 42.8731 52.0855 44.2621L60.3239 54.56M60.3239 54.56L60.3749 54.6239M43.125 25.875C41.5372 25.875 40.25 24.5878 40.25 23C40.25 21.4122 41.5372 20.125 43.125 20.125C44.7128 20.125 46 21.4122 46 23C46 24.5878 44.7128 25.875 43.125 25.875Z" stroke="white" stroke-width="2" stroke-linecap="round" stroke-linejoin="round"/>
</svg>
