<svg width="727" height="200" viewBox="0 0 727 200" fill="none" xmlns="http://www.w3.org/2000/svg">
<path d="M321.569 178.663V151.763H348.319V178.663H340.519V156.413L342.269 158.163H327.569L329.319 156.413V178.663H321.569ZM368.398 179.063C365.531 179.063 362.981 178.463 360.748 177.263C358.548 176.063 356.798 174.43 355.498 172.363C354.231 170.263 353.598 167.88 353.598 165.213C353.598 162.513 354.231 160.13 355.498 158.063C356.798 155.963 358.548 154.33 360.748 153.163C362.981 151.963 365.531 151.363 368.398 151.363C371.231 151.363 373.765 151.963 375.998 153.163C378.231 154.33 379.981 155.946 381.248 158.013C382.515 160.08 383.148 162.48 383.148 165.213C383.148 167.88 382.515 170.263 381.248 172.363C379.981 174.43 378.231 176.063 375.998 177.263C373.765 178.463 371.231 179.063 368.398 179.063ZM368.398 172.663C369.698 172.663 370.865 172.363 371.898 171.763C372.931 171.163 373.748 170.313 374.348 169.213C374.948 168.08 375.248 166.746 375.248 165.213C375.248 163.646 374.948 162.313 374.348 161.213C373.748 160.113 372.931 159.263 371.898 158.663C370.865 158.063 369.698 157.763 368.398 157.763C367.098 157.763 365.931 158.063 364.898 158.663C363.865 159.263 363.031 160.113 362.398 161.213C361.798 162.313 361.498 163.646 361.498 165.213C361.498 166.746 361.798 168.08 362.398 169.213C363.031 170.313 363.865 171.163 364.898 171.763C365.931 172.363 367.098 172.663 368.398 172.663ZM393.286 178.663V156.363L395.036 158.163H384.186V151.763H410.136V158.163H399.286L401.036 156.363V178.663H393.286ZM430.144 179.063C427.877 179.063 425.894 178.563 424.194 177.563C422.494 176.563 421.161 175.046 420.194 173.013C419.261 170.946 418.794 168.346 418.794 165.213C418.794 162.046 419.244 159.446 420.144 157.413C421.044 155.38 422.344 153.863 424.044 152.863C425.744 151.863 427.777 151.363 430.144 151.363C432.677 151.363 434.944 151.946 436.944 153.113C438.977 154.246 440.577 155.846 441.744 157.913C442.944 159.98 443.544 162.413 443.544 165.213C443.544 168.046 442.944 170.496 441.744 172.563C440.577 174.63 438.977 176.23 436.944 177.363C434.944 178.496 432.677 179.063 430.144 179.063ZM414.244 188.363V151.763H421.694V157.263L421.544 165.263L422.044 173.213V188.363H414.244ZM428.794 172.663C430.094 172.663 431.244 172.363 432.244 171.763C433.277 171.163 434.094 170.313 434.694 169.213C435.327 168.08 435.644 166.746 435.644 165.213C435.644 163.646 435.327 162.313 434.694 161.213C434.094 160.113 433.277 159.263 432.244 158.663C431.244 158.063 430.094 157.763 428.794 157.763C427.494 157.763 426.327 158.063 425.294 158.663C424.261 159.263 423.444 160.113 422.844 161.213C422.244 162.313 421.944 163.646 421.944 165.213C421.944 166.746 422.244 168.08 422.844 169.213C423.444 170.313 424.261 171.163 425.294 171.763C426.327 172.363 427.494 172.663 428.794 172.663ZM462.161 179.063C459.094 179.063 456.394 178.463 454.061 177.263C451.761 176.063 449.977 174.43 448.711 172.363C447.444 170.263 446.811 167.88 446.811 165.213C446.811 162.513 447.427 160.13 448.661 158.063C449.927 155.963 451.644 154.33 453.811 153.163C455.977 151.963 458.427 151.363 461.161 151.363C463.794 151.363 466.161 151.93 468.261 153.063C470.394 154.163 472.077 155.763 473.311 157.863C474.544 159.93 475.161 162.413 475.161 165.313C475.161 165.613 475.144 165.963 475.111 166.363C475.077 166.73 475.044 167.08 475.011 167.413H453.161V162.863H470.911L467.911 164.213C467.911 162.813 467.627 161.596 467.061 160.563C466.494 159.53 465.711 158.73 464.711 158.163C463.711 157.563 462.544 157.263 461.211 157.263C459.877 157.263 458.694 157.563 457.661 158.163C456.661 158.73 455.877 159.546 455.311 160.613C454.744 161.646 454.461 162.88 454.461 164.313V165.513C454.461 166.98 454.777 168.28 455.411 169.413C456.077 170.513 456.994 171.363 458.161 171.963C459.361 172.53 460.761 172.813 462.361 172.813C463.794 172.813 465.044 172.596 466.111 172.163C467.211 171.73 468.211 171.08 469.111 170.213L473.261 174.713C472.027 176.113 470.477 177.196 468.611 177.963C466.744 178.696 464.594 179.063 462.161 179.063ZM494.49 179.263C492.29 179.263 490.29 178.946 488.49 178.313C486.69 177.646 485.123 176.63 483.79 175.263C482.49 173.863 481.473 172.08 480.74 169.913C480.04 167.746 479.69 165.163 479.69 162.163C479.69 160.03 479.873 158.08 480.24 156.313C480.606 154.546 481.156 152.946 481.89 151.513C482.623 150.046 483.556 148.763 484.69 147.663C485.856 146.53 487.206 145.596 488.74 144.863C490.306 144.096 492.073 143.513 494.04 143.113L506.84 140.563L507.89 147.263L496.59 149.513C495.923 149.646 495.156 149.83 494.29 150.063C493.456 150.263 492.606 150.58 491.74 151.013C490.906 151.446 490.123 152.063 489.39 152.863C488.69 153.63 488.123 154.646 487.69 155.913C487.256 157.146 487.04 158.68 487.04 160.513C487.04 161.08 487.056 161.513 487.09 161.813C487.156 162.113 487.206 162.43 487.24 162.763C487.306 163.096 487.34 163.613 487.34 164.313L484.84 161.863C485.573 160.296 486.506 158.963 487.64 157.863C488.806 156.763 490.14 155.93 491.64 155.363C493.173 154.763 494.873 154.463 496.74 154.463C499.273 154.463 501.49 154.98 503.39 156.013C505.323 157.013 506.823 158.43 507.89 160.263C508.956 162.096 509.49 164.18 509.49 166.513C509.49 169.046 508.856 171.28 507.59 173.213C506.323 175.113 504.556 176.596 502.29 177.663C500.056 178.73 497.456 179.263 494.49 179.263ZM494.89 173.213C496.19 173.213 497.34 172.93 498.34 172.363C499.34 171.763 500.106 170.98 500.64 170.013C501.206 169.013 501.49 167.896 501.49 166.663C501.49 165.463 501.206 164.396 500.64 163.463C500.106 162.53 499.34 161.796 498.34 161.263C497.34 160.73 496.173 160.463 494.84 160.463C493.54 160.463 492.373 160.73 491.34 161.263C490.306 161.763 489.506 162.463 488.94 163.363C488.373 164.263 488.09 165.313 488.09 166.513C488.09 167.746 488.373 168.88 488.94 169.913C489.54 170.913 490.34 171.713 491.34 172.313C492.373 172.913 493.556 173.213 494.89 173.213ZM514.782 178.663V151.763H522.532V167.763L535.632 151.763H542.782V178.663H535.032V162.663L521.982 178.663H514.782ZM556.03 178.663V156.363L557.78 158.163H546.93V151.763H572.88V158.163H562.03L563.78 156.363V178.663H556.03ZM589.065 179.063C585.998 179.063 583.298 178.463 580.965 177.263C578.665 176.063 576.882 174.43 575.615 172.363C574.348 170.263 573.715 167.88 573.715 165.213C573.715 162.513 574.332 160.13 575.565 158.063C576.832 155.963 578.548 154.33 580.715 153.163C582.882 151.963 585.332 151.363 588.065 151.363C590.698 151.363 593.065 151.93 595.165 153.063C597.298 154.163 598.982 155.763 600.215 157.863C601.448 159.93 602.065 162.413 602.065 165.313C602.065 165.613 602.048 165.963 602.015 166.363C601.982 166.73 601.948 167.08 601.915 167.413H580.065V162.863H597.815L594.815 164.213C594.815 162.813 594.532 161.596 593.965 160.563C593.398 159.53 592.615 158.73 591.615 158.163C590.615 157.563 589.448 157.263 588.115 157.263C586.782 157.263 585.598 157.563 584.565 158.163C583.565 158.73 582.782 159.546 582.215 160.613C581.648 161.646 581.365 162.88 581.365 164.313V165.513C581.365 166.98 581.682 168.28 582.315 169.413C582.982 170.513 583.898 171.363 585.065 171.963C586.265 172.53 587.665 172.813 589.265 172.813C590.698 172.813 591.948 172.596 593.015 172.163C594.115 171.73 595.115 171.08 596.015 170.213L600.165 174.713C598.932 176.113 597.382 177.196 595.515 177.963C593.648 178.696 591.498 179.063 589.065 179.063ZM604.4 178.613L604.8 172.213C605 172.246 605.2 172.28 605.4 172.313C605.6 172.313 605.783 172.313 605.95 172.313C606.883 172.313 607.616 172.046 608.15 171.513C608.683 170.98 609.083 170.263 609.35 169.363C609.616 168.43 609.8 167.38 609.9 166.213C610.033 165.046 610.133 163.83 610.2 162.563L610.6 151.763H633.6V178.663H625.8V156.263L627.55 158.163H615.75L617.4 156.163L617.05 162.913C616.95 165.313 616.75 167.513 616.45 169.513C616.183 171.513 615.733 173.246 615.1 174.713C614.466 176.146 613.616 177.263 612.55 178.063C611.483 178.83 610.116 179.213 608.45 179.213C607.85 179.213 607.216 179.163 606.55 179.063C605.883 178.963 605.166 178.813 604.4 178.613ZM658.051 178.663V169.713L659.151 170.963H651.701C647.834 170.963 644.801 170.163 642.601 168.563C640.401 166.963 639.301 164.663 639.301 161.663C639.301 158.463 640.451 156.013 642.751 154.313C645.084 152.613 648.217 151.763 652.151 151.763H665.001V178.663H658.051ZM638.901 178.663L646.051 168.413H654.001L647.201 178.663H638.901ZM658.051 167.313V156.113L659.151 158.113H652.301C650.701 158.113 649.451 158.413 648.551 159.013C647.684 159.613 647.251 160.58 647.251 161.913C647.251 164.48 648.901 165.763 652.201 165.763H659.151L658.051 167.313Z" fill="white"/>
<path d="M58.9944 117.668H22.0097L38.3274 81.1794L0 0H40.3416L62.2054 64.7159H47.9311L76.5088 0H114.34L59.0528 117.668H58.9944Z" fill="white"/>
<path d="M207.86 0V32.7812H167.518V117.668H130.533V0H207.86Z" fill="white"/>
<path d="M438.278 117.717L438.278 84.9361L397.936 84.9361L397.936 0.049451L360.951 0.0494542L360.951 117.717L438.278 117.717Z" fill="white"/>
<path d="M227.02 34.3784C230.042 27.2447 234.221 21.095 239.582 15.9566C244.916 10.8182 251.171 6.88233 258.345 4.14912C265.519 1.41592 273.219 0.0493164 281.497 0.0493164C289.775 0.0493164 297.79 1.41592 304.965 4.14912C312.139 6.88233 318.367 10.8182 323.728 15.9566C329.063 21.095 333.215 27.2447 336.132 34.3784C339.049 41.512 340.521 49.493 340.521 58.2939C340.521 67.0948 339.075 75.1577 336.211 82.4554C333.346 89.7531 329.273 96.0668 324.017 101.424C318.761 106.781 312.533 110.881 305.333 113.778C298.106 116.675 290.169 118.096 281.497 118.096C272.825 118.096 264.862 116.648 257.662 113.778C250.435 110.881 244.207 106.781 238.977 101.424C233.721 96.0668 229.674 89.7531 226.783 82.4554C223.919 75.1577 222.474 67.1221 222.474 58.2939C222.474 49.4656 223.998 41.512 227.02 34.3784ZM260.605 72.4519C262.523 76.5517 265.257 79.7222 268.778 81.9634C272.299 84.232 276.557 85.3526 281.497 85.3526C286.438 85.3526 290.669 84.232 294.216 81.9634C297.738 79.6949 300.471 76.5243 302.389 72.4519C304.308 68.3521 305.254 63.651 305.254 58.2939C305.254 52.9368 304.334 48.0991 302.521 44.0539C300.707 40.0088 298.053 36.8656 294.584 34.6243C291.115 32.3558 286.727 31.2352 281.497 31.2352C276.557 31.2352 272.326 32.3558 268.778 34.6243C265.257 36.8929 262.523 40.0361 260.605 44.0539C258.687 48.0991 257.741 52.8548 257.741 58.2939C257.741 63.733 258.687 68.3794 260.605 72.4519Z" fill="white"/>
<path d="M459.708 34.3784C462.731 27.2447 466.909 21.095 472.27 15.9566C477.605 10.8182 483.859 6.88233 491.033 4.14912C498.208 1.41592 505.908 0.0493164 514.186 0.0493164C522.464 0.0493164 530.479 1.41592 537.653 4.14912C544.827 6.88233 551.056 10.8182 556.417 15.9566C561.751 21.095 565.903 27.2447 568.82 34.3784C571.737 41.512 573.209 49.493 573.209 58.2939C573.209 67.0948 571.764 75.1577 568.899 82.4554C566.035 89.7531 561.962 96.0668 556.706 101.424C551.45 106.781 545.222 110.881 538.021 113.778C530.794 116.675 522.858 118.096 514.186 118.096C505.513 118.096 497.551 116.648 490.35 113.778C483.123 110.881 476.895 106.781 471.665 101.424C466.41 96.0668 462.363 89.7531 459.472 82.4554C456.608 75.1577 455.162 67.1221 455.162 58.2939C455.162 49.4656 456.686 41.512 459.708 34.3784ZM493.294 72.4519C495.212 76.5517 497.945 79.7222 501.466 81.9634C504.988 84.232 509.245 85.3526 514.186 85.3526C519.126 85.3526 523.357 84.232 526.905 81.9634C530.426 79.6949 533.159 76.5243 535.078 72.4519C536.996 68.3521 537.942 63.651 537.942 58.2939C537.942 52.9368 537.023 48.0991 535.209 44.0539C533.396 40.0088 530.742 36.8656 527.273 34.6243C523.804 32.3558 519.415 31.2352 514.186 31.2352C509.245 31.2352 505.014 32.3558 501.466 34.6243C497.945 36.8929 495.212 40.0361 493.294 44.0539C491.375 48.0991 490.429 52.8548 490.429 58.2939C490.429 63.733 491.375 68.3794 493.294 72.4519Z" fill="white"/>
<path d="M630.019 0.0493164V117.717H591.37V0.0493164H630.019ZM709.184 0.0493164L663.296 55.1907L711.694 117.717H666.974L619.393 56.3583L666.128 0.0493164H709.155H709.184Z" fill="white"/>
</svg>
