<svg width="124" height="79" viewBox="0 0 124 79" fill="none" xmlns="http://www.w3.org/2000/svg">
<path d="M58.1916 1.45617L38.3734 1.456L38.3732 28.0179L43.3278 24.4902L43.3279 5.44961L54.7449 5.44971L58.1916 1.45617Z" fill="#FAFBFF"/>
<path d="M38.1487 64.4726H57.9669V37.9107L53.0123 41.4385V60.479H41.5953L38.1487 64.4726Z" fill="#FAFBFF"/>
<path d="M118.39 77.5267L118.98 76.52C119.134 76.2417 119.336 76.0562 119.587 75.9634C118.92 75.8324 118.587 75.4396 118.587 74.7848C118.587 74.3864 118.724 74.0754 118.997 73.8517C119.27 73.6225 119.669 73.5079 120.194 73.5079H122.376V77.5267H121.236V76.2253H120.9C120.768 76.2253 120.651 76.2635 120.547 76.3399C120.449 76.4108 120.367 76.5036 120.301 76.6182L119.784 77.5267H118.39ZM120.457 75.4314H121.236V74.3018H120.457C120.222 74.3018 120.044 74.351 119.924 74.4492C119.809 74.5474 119.751 74.6838 119.751 74.8584C119.751 75.0385 119.809 75.1804 119.924 75.284C120.044 75.3823 120.222 75.4314 120.457 75.4314Z" fill="#FAFBFF"/>
<path d="M113.704 77.6495L113.335 76.6755C113.669 76.5827 113.904 76.4026 114.04 76.1353C114.177 75.8624 114.245 75.4423 114.245 74.8748V73.5079H117.665V77.5267H116.427V74.4655H115.377V74.9157C115.377 75.7397 115.243 76.3754 114.975 76.8228C114.707 77.2703 114.284 77.5458 113.704 77.6495Z" fill="#FAFBFF"/>
<path d="M111.207 77.6167C110.731 77.6167 110.321 77.5322 109.977 77.363C109.638 77.1884 109.375 76.9456 109.189 76.6346C109.009 76.3181 108.919 75.947 108.919 75.5214C108.919 75.1067 109.006 74.7438 109.181 74.4328C109.362 74.1163 109.605 73.8708 109.911 73.6962C110.223 73.5161 110.581 73.4261 110.986 73.4261C111.571 73.4261 112.035 73.6116 112.38 73.9826C112.724 74.3482 112.897 74.8448 112.897 75.4723V75.7833H110.1C110.144 76.0998 110.258 76.3317 110.444 76.479C110.636 76.6209 110.898 76.6918 111.232 76.6918C111.45 76.6918 111.672 76.6591 111.896 76.5936C112.12 76.5282 112.322 76.4272 112.503 76.2908L112.831 77.1175C112.629 77.2702 112.38 77.393 112.085 77.4858C111.795 77.5731 111.502 77.6167 111.207 77.6167ZM111.035 74.2446C110.772 74.2446 110.559 74.3237 110.395 74.4819C110.237 74.6402 110.138 74.8611 110.1 75.1449H111.871C111.839 74.5447 111.56 74.2446 111.035 74.2446Z" fill="#FAFBFF"/>
<path d="M106.004 77.5267V74.4737H104.675V73.5079H108.571V74.4737H107.242V77.5267H106.004Z" fill="#FAFBFF"/>
<path d="M100.097 77.5267V73.5079H101.213V75.9388L103.05 73.5079H104.067V77.5267H102.951V75.0958L101.114 77.5267H100.097Z" fill="#FAFBFF"/>
<path d="M97.1321 77.6167C96.4596 77.6167 95.9265 77.4203 95.5329 77.0274C95.1447 76.6291 94.9505 76.037 94.9505 75.2513V74.6701C94.9505 73.8516 95.1419 73.2296 95.5247 72.804C95.9129 72.3729 96.4815 72.0755 97.2306 71.9118L98.6248 71.5926L98.9775 72.5584L97.3208 72.9186C96.9271 73.0059 96.6264 73.1696 96.4186 73.4097C96.2108 73.6443 96.107 73.9526 96.107 74.3345V74.3837C96.2272 74.149 96.4022 73.958 96.6319 73.8107C96.867 73.6634 97.1568 73.5897 97.5012 73.5897C97.8293 73.5897 98.1218 73.6688 98.3788 73.8271C98.6412 73.9853 98.8463 74.2118 98.9939 74.5064C99.147 74.7956 99.2235 75.1421 99.2235 75.5459C99.2235 75.9661 99.1361 76.3317 98.9611 76.6427C98.7861 76.9537 98.5401 77.1938 98.223 77.363C97.9113 77.5321 97.5477 77.6167 97.1321 77.6167ZM97.0911 76.6918C97.3755 76.6918 97.5942 76.5991 97.7473 76.4135C97.9004 76.228 97.9769 75.9579 97.9769 75.6032C97.9769 75.254 97.8976 74.9839 97.7391 74.7929C97.586 74.6019 97.3673 74.5064 97.0829 74.5064C96.8041 74.5064 96.5854 74.6019 96.4268 74.7929C96.2737 74.9784 96.1972 75.2376 96.1972 75.5705C96.1972 75.9415 96.2737 76.2225 96.4268 76.4135C96.5799 76.5991 96.8014 76.6918 97.0911 76.6918Z" fill="#FAFBFF"/>
<path d="M92.6094 77.6167C92.1337 77.6167 91.7237 77.5322 91.3792 77.363C91.0402 77.1884 90.7778 76.9456 90.5919 76.6346C90.4114 76.3181 90.3212 75.947 90.3212 75.5214C90.3212 75.1067 90.4087 74.7438 90.5837 74.4328C90.7641 74.1163 91.0074 73.8708 91.3136 73.6962C91.6253 73.5161 91.9834 73.4261 92.388 73.4261C92.973 73.4261 93.4378 73.6116 93.7822 73.9826C94.1267 74.3482 94.299 74.8448 94.299 75.4723V75.7833H91.5022C91.546 76.0998 91.6608 76.3317 91.8467 76.479C92.0381 76.6209 92.3005 76.6918 92.634 76.6918C92.8527 76.6918 93.0742 76.6591 93.2984 76.5936C93.5225 76.5282 93.7248 76.4272 93.9053 76.2908L94.2333 77.1175C94.031 77.2702 93.7822 77.393 93.487 77.4858C93.1972 77.5731 92.9047 77.6167 92.6094 77.6167ZM92.4372 74.2446C92.1748 74.2446 91.9615 74.3237 91.7975 74.4819C91.6389 74.6402 91.5405 74.8611 91.5022 75.1449H93.2738C93.2409 74.5447 92.9621 74.2446 92.4372 74.2446Z" fill="#FAFBFF"/>
<path d="M85.3841 79V73.5079H86.5979V74.1054C86.7073 73.8981 86.8741 73.7344 87.0982 73.6143C87.3279 73.4888 87.5849 73.4261 87.8692 73.4261C88.2191 73.4261 88.5253 73.5106 88.7878 73.6798C89.0557 73.8489 89.2634 74.089 89.4111 74.4001C89.5587 74.7111 89.6325 75.0821 89.6325 75.5132C89.6325 75.9443 89.5587 76.3181 89.4111 76.6346C89.2634 76.9456 89.0557 77.1884 88.7878 77.363C88.5253 77.5322 88.2191 77.6167 87.8692 77.6167C87.6013 77.6167 87.3552 77.5594 87.131 77.4449C86.9123 77.3303 86.7428 77.1775 86.6225 76.9865V79H85.3841ZM87.5001 76.6918C87.7626 76.6918 87.9758 76.5964 88.1398 76.4054C88.3039 76.2144 88.3859 75.917 88.3859 75.5132C88.3859 75.1149 88.3039 74.823 88.1398 74.6374C87.9758 74.4464 87.7626 74.351 87.5001 74.351C87.2322 74.351 87.0162 74.4464 86.8522 74.6374C86.6882 74.823 86.6061 75.1149 86.6061 75.5132C86.6061 75.917 86.6882 76.2144 86.8522 76.4054C87.0162 76.5964 87.2322 76.6918 87.5001 76.6918Z" fill="#FAFBFF"/>
<path d="M82.2164 77.5267V74.4737H80.8877V73.5079H84.7834V74.4737H83.4548V77.5267H82.2164Z" fill="#FAFBFF"/>
<path d="M78.3492 77.6167C77.9173 77.6167 77.54 77.5322 77.2174 77.363C76.9003 77.1884 76.6542 76.9456 76.4792 76.6346C76.3043 76.3181 76.2168 75.9443 76.2168 75.5132C76.2168 75.0876 76.3043 74.7193 76.4792 74.4082C76.6542 74.0918 76.9003 73.8489 77.2174 73.6798C77.54 73.5106 77.9173 73.4261 78.3492 73.4261C78.7811 73.4261 79.1557 73.5106 79.4728 73.6798C79.7954 73.8489 80.0442 74.0918 80.2191 74.4082C80.3996 74.7193 80.4898 75.0876 80.4898 75.5132C80.4898 75.9443 80.3996 76.3181 80.2191 76.6346C80.0442 76.9456 79.7954 77.1884 79.4728 77.363C79.1557 77.5322 78.7811 77.6167 78.3492 77.6167ZM78.3492 76.6918C78.6116 76.6918 78.8249 76.5964 78.9889 76.4054C79.1584 76.2144 79.2432 75.917 79.2432 75.5132C79.2432 75.1149 79.1584 74.823 78.9889 74.6374C78.8249 74.4464 78.6116 74.351 78.3492 74.351C78.0867 74.351 77.8735 74.4464 77.7095 74.6374C77.5454 74.823 77.4634 75.1149 77.4634 75.5132C77.4634 75.917 77.5454 76.2144 77.7095 76.4054C77.8735 76.5964 78.0867 76.6918 78.3492 76.6918Z" fill="#FAFBFF"/>
<path d="M70.1113 77.5267V71.7564H75.2865V77.5267H74.0152V72.804H71.3825V77.5267H70.1113Z" fill="#FAFBFF"/>
<path d="M8.53309 31.1005L13.2027 21.6683L0 0.0553281L7.02091 0.0553281L16.3704 15.6702L24.3977 0L31 2.29436e-08L15.23 31.1005L8.53309 31.1005Z" fill="#FAFBFF"/>
<path d="M75.0732 31.1005C72.1315 31.0869 69.5463 30.4397 67.3177 29.1591C65.1174 27.8504 63.4004 26.05 62.1664 23.7577C60.9609 21.4374 60.3653 18.7246 60.3798 15.6195C60.3942 12.5144 61.0149 9.82137 62.2418 7.54051C63.4971 5.23154 65.2308 3.44703 67.443 2.18697C69.6552 0.926901 72.2462 0.303724 75.2162 0.317466C78.1862 0.331209 80.7714 0.978338 82.9717 2.25882C85.2004 3.53943 86.9174 5.33991 88.123 7.66026C89.3569 9.95252 89.9667 12.6371 89.9524 15.714C89.938 18.8191 89.3031 21.5262 88.0478 23.8351C86.8208 26.1442 85.087 27.9428 82.8464 29.231C80.6342 30.491 78.0432 31.1142 75.0732 31.1005ZM75.0992 25.5113C77.5883 25.5228 79.5298 24.6708 80.9238 22.9553C82.3462 21.2117 83.0646 18.8014 83.0789 15.7245C83.0933 12.6194 82.4115 10.2168 81.0333 8.51667C79.6553 6.78833 77.7076 5.91833 75.1902 5.90668C72.7294 5.8953 70.7878 6.7473 69.3656 8.46269C67.9717 10.15 67.2676 12.5462 67.2531 15.6513C67.2388 18.7282 67.9206 21.1449 69.2985 22.9015C70.7048 24.63 72.6383 25.4999 75.0992 25.5113Z" fill="#FAFBFF"/>
<path d="M75.0732 66.5187C72.1316 66.5051 69.5464 65.858 67.3177 64.5774C65.1175 63.2686 63.4003 61.4682 62.1664 59.1759C60.9609 56.8556 60.3653 54.1428 60.3798 51.0377C60.3942 47.9326 61.0149 45.2396 62.2417 42.9587C63.4971 40.6498 65.2308 38.8653 67.443 37.6052C69.6552 36.3451 72.2463 35.7219 75.2163 35.7357C78.1862 35.7494 80.7715 36.3966 82.9718 37.677C85.2005 38.9577 86.9176 40.7581 88.1231 43.0785C89.357 45.3707 89.9668 48.0553 89.9525 51.1322C89.9381 54.2373 89.3033 56.9444 88.0479 59.2533C86.8209 61.5624 85.0871 63.361 82.8465 64.6492C80.6343 65.9093 78.0432 66.5324 75.0732 66.5187ZM75.0992 60.9295C77.5883 60.941 79.5299 60.089 80.9239 58.3735C82.3463 56.6299 83.0647 54.2196 83.079 51.1428C83.0934 48.0376 82.4115 45.635 81.0334 43.9349C79.6554 42.2066 77.7077 41.3366 75.1903 41.3249C72.7295 41.3135 70.7879 42.1655 69.3656 43.8809C67.9717 45.5682 67.2676 47.9644 67.2532 51.0695C67.2389 54.1464 67.9206 56.5631 69.2985 58.3197C70.7048 60.0482 72.6384 60.9181 75.0992 60.9295Z" fill="#FAFBFF"/>
<path d="M97.5247 66.5187L97.6678 35.7357L104.244 35.7661L104.183 49.0194L107.789 49.036L115.718 35.8192L122.739 35.8517L113.808 50.2919C115.868 51.3459 117.542 53.2026 118.831 55.8621L124 66.6412L116.872 66.6082L113.008 58.1217C112.392 56.7921 111.647 55.8571 110.772 55.3167C109.926 54.7482 108.839 54.4608 107.509 54.4547L104.157 54.4392L104.101 66.5491L97.5247 66.5187Z" fill="#FAFBFF"/>
</svg>
