<svg width="565" height="565" viewBox="0 0 565 565" fill="none" xmlns="http://www.w3.org/2000/svg">
<rect width="564.297" height="564.297" rx="50" fill="#2250C1"/>
<path d="M69 343V498H224L200.356 467H100.525V368.833L69 343Z" fill="#EFEFEF"/>
<path d="M148.118 224.353V206.28C152.509 206.382 156.338 206.178 159.605 205.667C162.873 205.157 165.528 204.187 167.57 202.757C169.612 201.327 170.94 199.387 171.552 196.937C172.267 194.384 172.165 191.218 171.246 187.44L143.37 75.9353H168.795L179.517 126.94L184.571 160.177L188.247 126.787L197.284 75.9353H223.016L197.284 191.576C196.059 197.192 194.629 201.94 192.996 205.82C191.362 209.701 189.32 212.866 186.869 215.317C184.52 217.869 181.61 219.81 178.138 221.137C174.667 222.464 170.429 223.332 165.426 223.741C160.524 224.251 154.755 224.456 148.118 224.353ZM234.459 200V75.9353H291.897V96.3064H261.876V200H234.459ZM340.434 201.838C331.142 201.838 323.79 200.204 318.378 196.937C312.966 193.669 309.086 188.972 306.737 182.845C304.388 176.719 303.214 169.418 303.214 160.943V114.84C303.214 106.262 304.388 98.9613 306.737 92.9368C309.086 86.9123 312.966 82.3173 318.378 79.1518C323.79 75.8843 331.142 74.2505 340.434 74.2505C349.828 74.2505 357.231 75.8843 362.643 79.1518C368.157 82.3173 372.088 86.9123 374.436 92.9368C376.785 98.9613 377.959 106.262 377.959 114.84V160.943C377.959 169.418 376.785 176.719 374.436 182.845C372.088 188.972 368.157 193.669 362.643 196.937C357.231 200.204 349.828 201.838 340.434 201.838ZM340.434 182.386C343.293 182.386 345.386 181.671 346.713 180.242C348.041 178.812 348.909 176.974 349.317 174.728C349.726 172.481 349.93 170.184 349.93 167.835V108.1C349.93 105.65 349.726 103.352 349.317 101.208C348.909 98.9613 348.041 97.1233 346.713 95.6938C345.386 94.2642 343.293 93.5495 340.434 93.5495C337.779 93.5495 335.788 94.2642 334.46 95.6938C333.133 97.1233 332.265 98.9613 331.856 101.208C331.448 103.352 331.244 105.65 331.244 108.1V167.835C331.244 170.184 331.397 172.481 331.703 174.728C332.112 176.974 332.928 178.812 334.154 180.242C335.481 181.671 337.574 182.386 340.434 182.386Z" fill="#EFEFEF"/>
<path d="M363.162 250.292C363.162 241 364.796 233.648 368.063 228.236C371.331 222.824 376.028 218.944 382.155 216.595C388.281 214.246 395.582 213.072 404.057 213.072H450.16C458.738 213.072 466.039 214.246 472.063 216.595C478.088 218.944 482.683 222.824 485.848 228.236C489.116 233.648 490.749 241 490.749 250.292C490.749 259.686 489.116 267.089 485.848 272.501C482.683 278.015 478.088 281.946 472.063 284.295C466.039 286.643 458.738 287.817 450.16 287.817H404.057C395.582 287.817 388.281 286.643 382.155 284.295C376.028 281.946 371.331 278.015 368.063 272.501C364.796 267.089 363.162 259.686 363.162 250.292ZM382.614 250.292C382.614 253.151 383.329 255.244 384.758 256.571C386.188 257.899 388.026 258.767 390.272 259.175C392.519 259.584 394.816 259.788 397.165 259.788H456.9C459.35 259.788 461.648 259.584 463.792 259.175C466.039 258.767 467.877 257.899 469.306 256.571C470.736 255.244 471.451 253.151 471.451 250.292C471.451 247.637 470.736 245.646 469.306 244.318C467.877 242.991 466.039 242.123 463.792 241.714C461.648 241.306 459.35 241.102 456.9 241.102H397.165C394.816 241.102 392.519 241.255 390.272 241.561C388.026 241.97 386.188 242.786 384.758 244.012C383.329 245.339 382.614 247.432 382.614 250.292ZM365 304.962H489.065V332.379H439.898V335.136L489.065 353.363V380.627L430.861 357.958L365 381.392V353.21L419.068 335.136V332.379H365V304.962Z" fill="#EFEFEF"/>
<path d="M387.072 200V180.701C390.544 180.701 393.352 180.497 395.496 180.088C397.641 179.578 399.325 178.455 400.551 176.719C401.776 174.983 402.746 172.328 403.461 168.754C404.176 165.18 404.737 160.381 405.146 154.356C405.656 148.332 406.269 140.674 406.984 131.382L410.966 75.9353H476.674V200H449.411V96.9191H435.779L433.328 136.589C432.614 146.8 431.899 155.633 431.184 163.087C430.469 170.439 429.295 176.617 427.661 181.62C426.13 186.623 423.781 190.555 420.616 193.414C417.552 196.171 413.315 198.06 407.903 199.081C402.491 200.102 395.547 200.408 387.072 200Z" fill="#EFEFEF"/>
</svg>
