<svg width="906" height="297" viewBox="0 0 906 297" fill="none" xmlns="http://www.w3.org/2000/svg">
<path d="M0 50C0 22.3858 22.3858 0 50 0H856C883.614 0 906 22.3858 906 50V247C906 274.614 883.614 297 856 297H50C22.3858 297 0 274.614 0 247V144.5V50Z" fill="#3563D4"/>
<path d="M463.674 243V216.1H490.424V243H482.624V220.75L484.374 222.5H469.674L471.424 220.75V243H463.674ZM511.252 243.4C508.385 243.4 505.835 242.8 503.602 241.6C501.402 240.4 499.652 238.767 498.352 236.7C497.085 234.6 496.452 232.217 496.452 229.55C496.452 226.85 497.085 224.467 498.352 222.4C499.652 220.3 501.402 218.667 503.602 217.5C505.835 216.3 508.385 215.7 511.252 215.7C514.085 215.7 516.619 216.3 518.852 217.5C521.085 218.667 522.835 220.283 524.102 222.35C525.369 224.417 526.002 226.817 526.002 229.55C526.002 232.217 525.369 234.6 524.102 236.7C522.835 238.767 521.085 240.4 518.852 241.6C516.619 242.8 514.085 243.4 511.252 243.4ZM511.252 237C512.552 237 513.719 236.7 514.752 236.1C515.785 235.5 516.602 234.65 517.202 233.55C517.802 232.417 518.102 231.083 518.102 229.55C518.102 227.983 517.802 226.65 517.202 225.55C516.602 224.45 515.785 223.6 514.752 223C513.719 222.4 512.552 222.1 511.252 222.1C509.952 222.1 508.785 222.4 507.752 223C506.719 223.6 505.885 224.45 505.252 225.55C504.652 226.65 504.352 227.983 504.352 229.55C504.352 231.083 504.652 232.417 505.252 233.55C505.885 234.65 506.719 235.5 507.752 236.1C508.785 236.7 509.952 237 511.252 237ZM536.89 243V220.7L538.64 222.5H527.79V216.1H553.74V222.5H542.89L544.64 220.7V243H536.89ZM574.498 243.4C572.232 243.4 570.248 242.9 568.548 241.9C566.848 240.9 565.515 239.383 564.548 237.35C563.615 235.283 563.148 232.683 563.148 229.55C563.148 226.383 563.598 223.783 564.498 221.75C565.398 219.717 566.698 218.2 568.398 217.2C570.098 216.2 572.132 215.7 574.498 215.7C577.032 215.7 579.298 216.283 581.298 217.45C583.332 218.583 584.932 220.183 586.098 222.25C587.298 224.317 587.898 226.75 587.898 229.55C587.898 232.383 587.298 234.833 586.098 236.9C584.932 238.967 583.332 240.567 581.298 241.7C579.298 242.833 577.032 243.4 574.498 243.4ZM558.598 252.7V216.1H566.048V221.6L565.898 229.6L566.398 237.55V252.7H558.598ZM573.148 237C574.448 237 575.598 236.7 576.598 236.1C577.632 235.5 578.448 234.65 579.048 233.55C579.682 232.417 579.998 231.083 579.998 229.55C579.998 227.983 579.682 226.65 579.048 225.55C578.448 224.45 577.632 223.6 576.598 223C575.598 222.4 574.448 222.1 573.148 222.1C571.848 222.1 570.682 222.4 569.648 223C568.615 223.6 567.798 224.45 567.198 225.55C566.598 226.65 566.298 227.983 566.298 229.55C566.298 231.083 566.598 232.417 567.198 233.55C567.798 234.65 568.615 235.5 569.648 236.1C570.682 236.7 571.848 237 573.148 237ZM607.265 243.4C604.198 243.4 601.498 242.8 599.165 241.6C596.865 240.4 595.082 238.767 593.815 236.7C592.548 234.6 591.915 232.217 591.915 229.55C591.915 226.85 592.532 224.467 593.765 222.4C595.032 220.3 596.748 218.667 598.915 217.5C601.082 216.3 603.532 215.7 606.265 215.7C608.898 215.7 611.265 216.267 613.365 217.4C615.498 218.5 617.182 220.1 618.415 222.2C619.648 224.267 620.265 226.75 620.265 229.65C620.265 229.95 620.248 230.3 620.215 230.7C620.182 231.067 620.148 231.417 620.115 231.75H598.265V227.2H616.015L613.015 228.55C613.015 227.15 612.732 225.933 612.165 224.9C611.598 223.867 610.815 223.067 609.815 222.5C608.815 221.9 607.648 221.6 606.315 221.6C604.982 221.6 603.798 221.9 602.765 222.5C601.765 223.067 600.982 223.883 600.415 224.95C599.848 225.983 599.565 227.217 599.565 228.65V229.85C599.565 231.317 599.882 232.617 600.515 233.75C601.182 234.85 602.098 235.7 603.265 236.3C604.465 236.867 605.865 237.15 607.465 237.15C608.898 237.15 610.148 236.933 611.215 236.5C612.315 236.067 613.315 235.417 614.215 234.55L618.365 239.05C617.132 240.45 615.582 241.533 613.715 242.3C611.848 243.033 609.698 243.4 607.265 243.4ZM640.344 243.6C638.144 243.6 636.144 243.283 634.344 242.65C632.544 241.983 630.977 240.967 629.644 239.6C628.344 238.2 627.327 236.417 626.594 234.25C625.894 232.083 625.544 229.5 625.544 226.5C625.544 224.367 625.727 222.417 626.094 220.65C626.461 218.883 627.011 217.283 627.744 215.85C628.477 214.383 629.411 213.1 630.544 212C631.711 210.867 633.061 209.933 634.594 209.2C636.161 208.433 637.927 207.85 639.894 207.45L652.694 204.9L653.744 211.6L642.444 213.85C641.777 213.983 641.011 214.167 640.144 214.4C639.311 214.6 638.461 214.917 637.594 215.35C636.761 215.783 635.977 216.4 635.244 217.2C634.544 217.967 633.977 218.983 633.544 220.25C633.111 221.483 632.894 223.017 632.894 224.85C632.894 225.417 632.911 225.85 632.944 226.15C633.011 226.45 633.061 226.767 633.094 227.1C633.161 227.433 633.194 227.95 633.194 228.65L630.694 226.2C631.427 224.633 632.361 223.3 633.494 222.2C634.661 221.1 635.994 220.267 637.494 219.7C639.027 219.1 640.727 218.8 642.594 218.8C645.127 218.8 647.344 219.317 649.244 220.35C651.177 221.35 652.677 222.767 653.744 224.6C654.811 226.433 655.344 228.517 655.344 230.85C655.344 233.383 654.711 235.617 653.444 237.55C652.177 239.45 650.411 240.933 648.144 242C645.911 243.067 643.311 243.6 640.344 243.6ZM640.744 237.55C642.044 237.55 643.194 237.267 644.194 236.7C645.194 236.1 645.961 235.317 646.494 234.35C647.061 233.35 647.344 232.233 647.344 231C647.344 229.8 647.061 228.733 646.494 227.8C645.961 226.867 645.194 226.133 644.194 225.6C643.194 225.067 642.027 224.8 640.694 224.8C639.394 224.8 638.227 225.067 637.194 225.6C636.161 226.1 635.361 226.8 634.794 227.7C634.227 228.6 633.944 229.65 633.944 230.85C633.944 232.083 634.227 233.217 634.794 234.25C635.394 235.25 636.194 236.05 637.194 236.65C638.227 237.25 639.411 237.55 640.744 237.55ZM661.386 243V216.1H669.136V232.1L682.236 216.1H689.386V243H681.636V227L668.586 243H661.386ZM703.385 243V220.7L705.135 222.5H694.285V216.1H720.235V222.5H709.385L711.135 220.7V243H703.385ZM737.169 243.4C734.103 243.4 731.403 242.8 729.069 241.6C726.769 240.4 724.986 238.767 723.719 236.7C722.453 234.6 721.819 232.217 721.819 229.55C721.819 226.85 722.436 224.467 723.669 222.4C724.936 220.3 726.653 218.667 728.819 217.5C730.986 216.3 733.436 215.7 736.169 215.7C738.803 215.7 741.169 216.267 743.269 217.4C745.403 218.5 747.086 220.1 748.319 222.2C749.553 224.267 750.169 226.75 750.169 229.65C750.169 229.95 750.153 230.3 750.119 230.7C750.086 231.067 750.053 231.417 750.019 231.75H728.169V227.2H745.919L742.919 228.55C742.919 227.15 742.636 225.933 742.069 224.9C741.503 223.867 740.719 223.067 739.719 222.5C738.719 221.9 737.553 221.6 736.219 221.6C734.886 221.6 733.703 221.9 732.669 222.5C731.669 223.067 730.886 223.883 730.319 224.95C729.753 225.983 729.469 227.217 729.469 228.65V229.85C729.469 231.317 729.786 232.617 730.419 233.75C731.086 234.85 732.003 235.7 733.169 236.3C734.369 236.867 735.769 237.15 737.369 237.15C738.803 237.15 740.053 236.933 741.119 236.5C742.219 236.067 743.219 235.417 744.119 234.55L748.269 239.05C747.036 240.45 745.486 241.533 743.619 242.3C741.753 243.033 739.603 243.4 737.169 243.4ZM753.254 242.95L753.654 236.55C753.854 236.583 754.054 236.617 754.254 236.65C754.454 236.65 754.637 236.65 754.804 236.65C755.737 236.65 756.471 236.383 757.004 235.85C757.537 235.317 757.937 234.6 758.204 233.7C758.471 232.767 758.654 231.717 758.754 230.55C758.887 229.383 758.987 228.167 759.054 226.9L759.454 216.1H782.454V243H774.654V220.6L776.404 222.5H764.604L766.254 220.5L765.904 227.25C765.804 229.65 765.604 231.85 765.304 233.85C765.037 235.85 764.587 237.583 763.954 239.05C763.321 240.483 762.471 241.6 761.404 242.4C760.337 243.167 758.971 243.55 757.304 243.55C756.704 243.55 756.071 243.5 755.404 243.4C754.737 243.3 754.021 243.15 753.254 242.95ZM807.655 243V234.05L808.755 235.3H801.305C797.438 235.3 794.405 234.5 792.205 232.9C790.005 231.3 788.905 229 788.905 226C788.905 222.8 790.055 220.35 792.355 218.65C794.688 216.95 797.822 216.1 801.755 216.1H814.605V243H807.655ZM788.505 243L795.655 232.75H803.605L796.805 243H788.505ZM807.655 231.65V220.45L808.755 222.45H801.905C800.305 222.45 799.055 222.75 798.155 223.35C797.288 223.95 796.855 224.917 796.855 226.25C796.855 228.817 798.505 230.1 801.805 230.1H808.755L807.655 231.65Z" fill="white"/>
<path d="M156.825 184.249H119.841L136.159 147.76L97.8311 66.5811H138.173L160.036 131.297H145.762L174.34 66.5811H212.171L156.884 184.249H156.825Z" fill="white"/>
<path d="M305.69 66.5811V99.3623H265.349V184.249H228.364V66.5811H305.69Z" fill="white"/>
<path d="M536.109 184.298L536.109 151.517L495.768 151.517L495.767 66.6305L458.783 66.6305L458.783 184.298L536.109 184.298Z" fill="white"/>
<path d="M324.851 100.959C327.873 93.8257 332.051 87.6761 337.412 82.5376C342.747 77.3992 349.001 73.4634 356.176 70.7302C363.35 67.997 371.05 66.6304 379.328 66.6304C387.606 66.6304 395.621 67.997 402.795 70.7302C409.97 73.4634 416.198 77.3992 421.559 82.5376C426.894 87.6761 431.046 93.8257 433.963 100.959C436.88 108.093 438.352 116.074 438.352 124.875C438.352 133.676 436.906 141.739 434.042 149.036C431.177 156.334 427.104 162.648 421.848 168.005C416.592 173.362 410.364 177.462 403.163 180.359C395.936 183.256 388 184.677 379.328 184.677C370.656 184.677 362.693 183.229 355.492 180.359C348.266 177.462 342.037 173.362 336.808 168.005C331.552 162.648 327.505 156.334 324.614 149.036C321.75 141.739 320.304 133.703 320.304 124.875C320.304 116.047 321.829 108.093 324.851 100.959ZM358.436 139.033C360.354 143.133 363.087 146.303 366.609 148.544C370.13 150.813 374.387 151.934 379.328 151.934C384.268 151.934 388.499 150.813 392.047 148.544C395.569 146.276 398.302 143.105 400.22 139.033C402.138 134.933 403.085 130.232 403.085 124.875C403.085 119.518 402.165 114.68 400.351 110.635C398.538 106.59 395.884 103.447 392.415 101.205C388.946 98.9368 384.557 97.8162 379.328 97.8162C374.387 97.8162 370.156 98.9368 366.609 101.205C363.087 103.474 360.354 106.617 358.436 110.635C356.517 114.68 355.571 119.436 355.571 124.875C355.571 130.314 356.517 134.96 358.436 139.033Z" fill="white"/>
<path d="M557.54 100.959C560.562 93.8257 564.74 87.6761 570.101 82.5376C575.436 77.3992 581.69 73.4634 588.865 70.7302C596.039 67.997 603.739 66.6304 612.017 66.6304C620.295 66.6304 628.31 67.997 635.484 70.7302C642.659 73.4634 648.887 77.3992 654.248 82.5376C659.583 87.6761 663.735 93.8257 666.652 100.959C669.569 108.093 671.04 116.074 671.04 124.875C671.04 133.676 669.595 141.739 666.731 149.036C663.866 156.334 659.793 162.648 654.537 168.005C649.281 173.362 643.053 177.462 635.852 180.359C628.625 183.256 620.689 184.677 612.017 184.677C603.345 184.677 595.382 183.229 588.182 180.359C580.955 177.462 574.726 173.362 569.497 168.005C564.241 162.648 560.194 156.334 557.303 149.036C554.439 141.739 552.993 133.703 552.993 124.875C552.993 116.047 554.518 108.093 557.54 100.959ZM591.125 139.033C593.043 143.133 595.776 146.303 599.298 148.545C602.819 150.813 607.076 151.934 612.017 151.934C616.957 151.934 621.188 150.813 624.736 148.545C628.258 146.276 630.991 143.105 632.909 139.033C634.827 134.933 635.773 130.232 635.773 124.875C635.773 119.518 634.854 114.68 633.041 110.635C631.227 106.59 628.573 103.447 625.104 101.205C621.635 98.9368 617.246 97.8162 612.017 97.8162C607.076 97.8162 602.845 98.9368 599.298 101.205C595.776 103.474 593.043 106.617 591.125 110.635C589.206 114.68 588.26 119.436 588.26 124.875C588.26 130.314 589.206 134.96 591.125 139.033Z" fill="white"/>
<path d="M727.85 66.6304V184.298H689.202V66.6304H727.85ZM807.015 66.6304L761.128 121.772L809.526 184.298H764.806L717.225 122.939L763.959 66.6304H806.986H807.015Z" fill="white"/>
</svg>
