<svg width="527" height="328" viewBox="0 0 527 328" fill="none" xmlns="http://www.w3.org/2000/svg">
<path d="M0 50C0 22.3858 22.3858 0 50 0H477C504.614 0 527 22.3858 527 50V278C527 305.614 504.614 328 477 328H50C22.3858 328 0 305.614 0 278V159.582V50Z" fill="#3563D4"/>
<path d="M102.974 151.666H70.3907L84.7666 119.519L51 48H86.5411L105.803 105.015H93.2275L118.405 48H151.734L103.026 151.666H102.974Z" fill="white"/>
<path d="M234.125 48V76.8804H198.584V151.666H166V48H234.125Z" fill="white"/>
<path d="M234.125 278.666L234.125 249.786L198.584 249.786L198.584 175L166 175L166 278.666L234.125 278.666Z" fill="white"/>
<path d="M251.005 78.2875C253.668 72.0027 257.349 66.5848 262.072 62.0578C266.772 57.5309 272.282 54.0634 278.603 51.6554C284.923 49.2474 291.707 48.0435 299 48.0435C306.293 48.0435 313.354 49.2474 319.675 51.6554C325.995 54.0634 331.483 57.5309 336.206 62.0578C340.906 66.5848 344.564 72.0027 347.134 78.2875C349.704 84.5723 351 91.6035 351 99.3572C351 107.111 349.727 114.214 347.203 120.644C344.679 127.073 341.091 132.635 336.46 137.355C331.83 142.074 326.343 145.686 319.999 148.239C313.632 150.791 306.64 152.043 299 152.043C291.36 152.043 284.345 150.767 278.001 148.239C271.634 145.686 266.147 142.074 261.54 137.355C256.909 132.635 253.344 127.073 250.797 120.644C248.273 114.214 247 107.135 247 99.3572C247 91.5795 248.343 84.5723 251.005 78.2875ZM280.594 111.83C282.284 115.442 284.692 118.236 287.794 120.21C290.897 122.209 294.647 123.196 299 123.196C303.353 123.196 307.08 122.209 310.206 120.21C313.308 118.212 315.716 115.418 317.406 111.83C319.096 108.218 319.93 104.077 319.93 99.3572C319.93 94.6376 319.119 90.3755 317.522 86.8117C315.924 83.2479 313.586 80.4787 310.53 78.5042C307.474 76.5056 303.607 75.5183 299 75.5183C294.647 75.5183 290.92 76.5056 287.794 78.5042C284.692 80.5028 282.284 83.272 280.594 86.8117C278.904 90.3755 278.07 94.5653 278.07 99.3572C278.07 104.149 278.904 108.243 280.594 111.83Z" fill="white"/>
<path d="M253.005 205.244C255.668 198.959 259.349 193.541 264.072 189.014C268.772 184.487 274.282 181.02 280.603 178.612C286.923 176.204 293.707 175 301 175C308.293 175 315.354 176.204 321.675 178.612C327.995 181.02 333.483 184.487 338.206 189.014C342.906 193.541 346.564 198.959 349.133 205.244C351.703 211.529 353 218.56 353 226.314C353 234.067 351.727 241.171 349.203 247.6C346.679 254.029 343.091 259.592 338.46 264.311C333.83 269.031 328.343 272.643 321.999 275.195C315.632 277.748 308.64 279 301 279C293.36 279 286.345 277.724 280.001 275.195C273.634 272.643 268.147 269.031 263.54 264.311C258.909 259.592 255.344 254.029 252.797 247.6C250.273 241.171 249 234.091 249 226.314C249 218.536 250.343 211.529 253.005 205.244ZM282.594 238.787C284.284 242.399 286.692 245.192 289.794 247.167C292.897 249.165 296.647 250.153 301 250.153C305.353 250.153 309.08 249.165 312.206 247.167C315.308 245.168 317.716 242.375 319.406 238.787C321.096 235.175 321.93 231.033 321.93 226.314C321.93 221.594 321.119 217.332 319.522 213.768C317.924 210.204 315.586 207.435 312.53 205.461C309.474 203.462 305.607 202.475 301 202.475C296.647 202.475 292.92 203.462 289.794 205.461C286.692 207.459 284.284 210.229 282.594 213.768C280.904 217.332 280.07 221.522 280.07 226.314C280.07 231.106 280.904 235.199 282.594 238.787Z" fill="white"/>
<path d="M403.049 175V278.666H369V175H403.049ZM472.794 175L432.367 223.58L475.006 278.666H435.608L393.688 224.608L434.862 175H472.769H472.794Z" fill="white"/>
<path d="M102.974 151.666H70.3907L84.7666 119.519L51 48H86.5411L105.803 105.015H93.2275L118.405 48H151.734L103.026 151.666H102.974Z" fill="white"/>
<path d="M234.125 48V76.8804H198.584V151.666H166V48H234.125Z" fill="white"/>
<path d="M234.125 278.666L234.125 249.786L198.584 249.786L198.584 175L166 175L166 278.666L234.125 278.666Z" fill="white"/>
<path d="M251.005 78.2875C253.668 72.0027 257.349 66.5848 262.072 62.0578C266.772 57.5309 272.282 54.0634 278.603 51.6554C284.923 49.2474 291.707 48.0435 299 48.0435C306.293 48.0435 313.354 49.2474 319.675 51.6554C325.995 54.0634 331.483 57.5309 336.206 62.0578C340.906 66.5848 344.564 72.0027 347.134 78.2875C349.704 84.5723 351 91.6035 351 99.3572C351 107.111 349.727 114.214 347.203 120.644C344.679 127.073 341.091 132.635 336.46 137.355C331.83 142.074 326.343 145.686 319.999 148.239C313.632 150.791 306.64 152.043 299 152.043C291.36 152.043 284.345 150.767 278.001 148.239C271.634 145.686 266.147 142.074 261.54 137.355C256.909 132.635 253.344 127.073 250.797 120.644C248.273 114.214 247 107.135 247 99.3572C247 91.5795 248.343 84.5723 251.005 78.2875ZM280.594 111.83C282.284 115.442 284.692 118.236 287.794 120.21C290.897 122.209 294.647 123.196 299 123.196C303.353 123.196 307.08 122.209 310.206 120.21C313.308 118.212 315.716 115.418 317.406 111.83C319.096 108.218 319.93 104.077 319.93 99.3572C319.93 94.6376 319.119 90.3755 317.522 86.8117C315.924 83.2479 313.586 80.4787 310.53 78.5042C307.474 76.5056 303.607 75.5183 299 75.5183C294.647 75.5183 290.92 76.5056 287.794 78.5042C284.692 80.5028 282.284 83.272 280.594 86.8117C278.904 90.3755 278.07 94.5653 278.07 99.3572C278.07 104.149 278.904 108.243 280.594 111.83Z" fill="white"/>
<path d="M253.005 205.244C255.668 198.959 259.349 193.541 264.072 189.014C268.772 184.487 274.282 181.02 280.603 178.612C286.923 176.204 293.707 175 301 175C308.293 175 315.354 176.204 321.675 178.612C327.995 181.02 333.483 184.487 338.206 189.014C342.906 193.541 346.564 198.959 349.133 205.244C351.703 211.529 353 218.56 353 226.314C353 234.067 351.727 241.171 349.203 247.6C346.679 254.029 343.091 259.592 338.46 264.311C333.83 269.031 328.343 272.643 321.999 275.195C315.632 277.748 308.64 279 301 279C293.36 279 286.345 277.724 280.001 275.195C273.634 272.643 268.147 269.031 263.54 264.311C258.909 259.592 255.344 254.029 252.797 247.6C250.273 241.171 249 234.091 249 226.314C249 218.536 250.343 211.529 253.005 205.244ZM282.594 238.787C284.284 242.399 286.692 245.192 289.794 247.167C292.897 249.165 296.647 250.153 301 250.153C305.353 250.153 309.08 249.165 312.206 247.167C315.308 245.168 317.716 242.375 319.406 238.787C321.096 235.175 321.93 231.033 321.93 226.314C321.93 221.594 321.119 217.332 319.522 213.768C317.924 210.204 315.586 207.435 312.53 205.461C309.474 203.462 305.607 202.475 301 202.475C296.647 202.475 292.92 203.462 289.794 205.461C286.692 207.459 284.284 210.229 282.594 213.768C280.904 217.332 280.07 221.522 280.07 226.314C280.07 231.106 280.904 235.199 282.594 238.787Z" fill="white"/>
<path d="M403.049 175V278.666H369V175H403.049ZM472.794 175L432.367 223.58L475.006 278.666H435.608L393.688 224.608L434.862 175H472.769H472.794Z" fill="white"/>
</svg>
