<svg width="328" height="328" viewBox="0 0 328 328" fill="none" xmlns="http://www.w3.org/2000/svg">
<rect width="328" height="328" rx="55" fill="#3563D4"/>
<path d="M58.6738 181.943L85.1162 181.943L85.1162 214.484L153.589 214.484L153.589 244.317L58.6738 244.317L58.6738 181.943Z" fill="white"/>
<path d="M267.944 181.943L241.502 181.943L241.502 214.484L173.03 214.484L173.03 244.317L267.944 244.317L267.944 181.943Z" fill="white"/>
<path d="M86.404 166.488C80.6498 164.05 75.6892 160.679 71.5444 156.355C67.3996 152.052 64.2248 147.007 62.0201 141.22C59.8154 135.433 58.7131 129.222 58.7131 122.544C58.7131 115.867 59.8154 109.402 62.0201 103.615C64.2248 97.8278 67.3996 92.8039 71.5444 88.4795C75.6892 84.1763 80.6498 80.827 86.404 78.4741C92.1583 76.1211 98.596 74.9341 105.695 74.9341C112.794 74.9341 119.298 76.1 125.185 78.4105C131.071 80.7211 136.164 84.0068 140.485 88.2464C144.806 92.4859 148.113 97.5098 150.45 103.318C152.787 109.147 153.934 115.549 153.934 122.544C153.934 129.54 152.765 135.963 150.45 141.771C148.113 147.6 144.806 152.624 140.485 156.843C136.164 161.082 131.071 164.347 125.185 166.678C119.298 168.989 112.816 170.155 105.695 170.155C98.5739 170.155 92.1583 168.925 86.404 166.488ZM117.115 139.397C120.422 137.849 122.98 135.645 124.788 132.804C126.618 129.964 127.522 126.53 127.522 122.544C127.522 118.559 126.618 115.146 124.788 112.285C122.958 109.444 120.4 107.24 117.115 105.692C113.808 104.145 110.016 103.382 105.695 103.382C101.374 103.382 97.4716 104.124 94.2086 105.586C90.9457 107.049 88.4103 109.19 86.6024 111.988C84.7725 114.786 83.8686 118.326 83.8686 122.544C83.8686 126.53 84.7725 129.942 86.6024 132.804C88.4323 135.645 90.9677 137.849 94.2086 139.397C97.4716 140.944 101.308 141.707 105.695 141.707C110.082 141.707 113.83 140.944 117.115 139.397Z" fill="white"/>
<path d="M200.72 164.656C194.966 162.218 190.006 158.848 185.861 154.523C181.716 150.22 178.541 145.175 176.337 139.388C174.132 133.601 173.03 127.39 173.03 120.713C173.03 114.036 174.132 107.57 176.337 101.783C178.541 95.9963 181.716 90.9724 185.861 86.6481C190.006 82.3449 194.966 78.9957 200.72 76.6427C206.475 74.2898 212.912 73.1026 220.011 73.1026C227.111 73.1026 233.614 74.2685 239.501 76.5791C245.387 78.8896 250.48 82.1753 254.802 86.4149C259.123 90.6545 262.43 95.6783 264.767 101.487C267.104 107.316 268.25 113.718 268.25 120.713C268.25 127.708 267.082 134.131 264.767 139.939C262.43 145.769 259.123 150.793 254.802 155.011C250.48 159.251 245.387 162.515 239.501 164.847C233.614 167.157 227.133 168.323 220.011 168.323C212.89 168.323 206.475 167.094 200.72 164.656ZM231.432 137.565C234.739 136.018 237.296 133.813 239.104 130.973C240.934 128.132 241.838 124.698 241.838 120.713C241.838 116.728 240.934 113.315 239.104 110.453C237.274 107.613 234.717 105.408 231.432 103.861C228.125 102.313 224.333 101.55 220.011 101.55C215.69 101.55 211.788 102.292 208.525 103.755C205.262 105.217 202.727 107.358 200.919 110.156C199.089 112.955 198.185 116.495 198.185 120.713C198.185 124.698 199.089 128.111 200.919 130.973C202.749 133.813 205.284 136.018 208.525 137.565C211.788 139.113 215.624 139.876 220.011 139.876C224.399 139.876 228.147 139.113 231.432 137.565Z" fill="white"/>
</svg>
